<svg width="154" height="31" viewBox="0 0 154 31" fill="none" xmlns="http://www.w3.org/2000/svg">
<path d="M56.1277 24V21.8571H54V11.1429H56.1277V9H66.766V11.1429H68.8936V21.8571H66.766V24H56.1277ZM58.2553 21.8571H64.6383V11.1429H58.2553V21.8571Z" fill="#1A2C3A"/>
<path d="M71.0213 24V9H75.2766V11.1429H77.4043V13.2857H79.5319V15.4286H81.6596V9H85.9149V24H81.6596V19.7143H79.5319V17.5714H77.4043V15.4286H75.2766V24H71.0213Z" fill="#1A2C3A"/>
<path d="M102.936 9V11.1429H100.809V9H102.936ZM98.6809 11.1429H100.809V13.2857H98.6809V11.1429ZM96.5532 13.2857H98.6809V15.4286H96.5532V13.2857ZM94.4255 15.4286H96.5532V17.5714H94.4255V15.4286ZM92.2979 17.5714H94.4255V19.7143H92.2979V17.5714ZM90.1702 19.7143H92.2979V21.8571H90.1702V19.7143ZM88.0426 21.8571H90.1702V24H88.0426V21.8571Z" fill="#1A2C3A"/>
<path d="M107.191 24V21.8571H105.064V11.1429H107.191V9H117.83V11.1429H119.957V21.8571H117.83V24H107.191ZM109.319 21.8571H115.702V11.1429H109.319V21.8571Z" fill="#1A2C3A"/>
<path d="M122.085 24V9H136.979V11.1429H126.34V15.4286H134.851V17.5714H126.34V24H122.085Z" fill="#1A2C3A"/>
<path d="M139.106 24V9H154V11.1429H143.362V15.4286H151.872V17.5714H143.362V24H139.106Z" fill="#1A2C3A"/>
<path d="M34.1284 6.40643H31.722V8.81285H34.1284V6.40643Z" fill="#374E63"/>
<path d="M29.3155 4H26.9091V6.40642H29.3155V4Z" fill="#374E63"/>
<path d="M24.5027 4H22.0963V6.40642H24.5027V4Z" fill="#374E63"/>
<path d="M31.7219 4H29.3155V6.40642H31.7219V4Z" fill="#374E63"/>
<path d="M26.9092 4H24.5027V6.40642H26.9092V4Z" fill="#374E63"/>
<path d="M22.0963 4H19.6898V6.40642H22.0963V4Z" fill="#374E63"/>
<path d="M36.5348 8.81274H34.1284V11.2192H36.5348V8.81274Z" fill="#374E63"/>
<path d="M38.9412 11.2192H36.5348V13.6256H38.9412V11.2192Z" fill="#374E63"/>
<path d="M14.877 11.2192H12.4706V13.6256H14.877V11.2192Z" fill="#374E63"/>
<path d="M38.9412 13.6256H36.5348V16.032H38.9412V13.6256Z" fill="#374E63"/>
<path d="M14.877 13.6256H12.4706V16.032H14.877V13.6256Z" fill="#374E63"/>
<path d="M38.9412 16.0321H36.5348V18.4385H38.9412V16.0321Z" fill="#374E63"/>
<path d="M14.877 16.0321H12.4706V18.4385H14.877V16.0321Z" fill="#374E63"/>
<path d="M38.9412 18.4385H36.5348V20.845H38.9412V18.4385Z" fill="#374E63"/>
<path d="M14.877 18.4385H12.4706V20.845H14.877V18.4385Z" fill="#374E63"/>
<path d="M38.9412 20.845H36.5348V23.2514H38.9412V20.845Z" fill="#374E63"/>
<path d="M14.877 20.845H12.4706V23.2514H14.877V20.845Z" fill="#374E63"/>
<path d="M36.5348 23.2514H34.1284V25.6578H36.5348V23.2514Z" fill="#374E63"/>
<path d="M34.1284 25.6578H31.722V28.0643H34.1284V25.6578Z" fill="#374E63"/>
<path d="M31.7219 28.0641H29.3155V30.4706H31.7219V28.0641Z" fill="#374E63"/>
<path d="M29.3155 28.0641H26.9091V30.4706H29.3155V28.0641Z" fill="#374E63"/>
<path d="M26.9092 28.0641H24.5027V30.4706H26.9092V28.0641Z" fill="#374E63"/>
<path d="M24.5027 28.0641H22.0963V30.4706H24.5027V28.0641Z" fill="#374E63"/>
<path d="M22.0963 28.0641H19.6898V30.4706H22.0963V28.0641Z" fill="#374E63"/>
<path d="M19.6898 25.6578H17.2834V28.0643H19.6898V25.6578Z" fill="#374E63"/>
<path d="M17.2834 23.2514H14.877V25.6578H17.2834V23.2514Z" fill="#374E63"/>
<path d="M31.7219 6.40643H29.3155V8.81285H31.7219V6.40643Z" fill="#1A2C3A"/>
<path d="M34.1284 8.81274H31.722V11.2192H34.1284V8.81274Z" fill="#1A2C3A"/>
<path d="M36.5348 11.2192H34.1284V13.6256H36.5348V11.2192Z" fill="#1A2C3A"/>
<path d="M29.3155 6.40643H26.9091V8.81285H29.3155V6.40643Z" fill="#243E51"/>
<path d="M29.3155 25.6578H26.9091V28.0643H29.3155V25.6578Z" fill="#243E51"/>
<path d="M17.2834 20.845L17.2834 18.4385L14.877 18.4385L14.877 20.845L17.2834 20.845Z" fill="#243E51"/>
<path d="M36.5348 20.845L36.5348 18.4385L34.1283 18.4385L34.1283 20.845L36.5348 20.845Z" fill="#243E51"/>
<path d="M26.9092 6.40643H24.5027V8.81285H26.9092V6.40643Z" fill="#243E51"/>
<path d="M26.9092 25.6578H24.5027V28.0643H26.9092V25.6578Z" fill="#243E51"/>
<path d="M17.2834 18.4385L17.2834 16.0321L14.877 16.0321L14.877 18.4385L17.2834 18.4385Z" fill="#243E51"/>
<path d="M36.5348 18.4385L36.5348 16.0321L34.1283 16.0321L34.1283 18.4385L36.5348 18.4385Z" fill="#243E51"/>
<path d="M24.5027 6.40643H22.0963V8.81285H24.5027V6.40643Z" fill="#243E51"/>
<path d="M24.5027 25.6578H22.0963V28.0643H24.5027V25.6578Z" fill="#243E51"/>
<path d="M17.2834 16.032L17.2834 13.6256L14.877 13.6256L14.877 16.032L17.2834 16.032Z" fill="#243E51"/>
<path d="M36.5348 16.032L36.5348 13.6256L34.1283 13.6256L34.1283 16.032L36.5348 16.032Z" fill="#243E51"/>
<path d="M22.0963 6.40643H19.6898V8.81285H22.0963V6.40643Z" fill="#1A2C3A"/>
<path d="M22.0963 28.0643L22.0963 25.6578L19.6899 25.6578L19.6899 28.0643L22.0963 28.0643Z" fill="#1A2C3A"/>
<path d="M29.3155 28.0641L31.722 28.0641L31.722 25.6577L29.3155 25.6577L29.3155 28.0641Z" fill="#1A2C3A"/>
<path d="M19.6898 8.81274H17.2834V11.2192H19.6898V8.81274Z" fill="#1A2C3A"/>
<path d="M19.6898 25.6578L19.6898 23.2514L17.2834 23.2514L17.2834 25.6578L19.6898 25.6578Z" fill="#1A2C3A"/>
<path d="M31.722 25.6578L34.1284 25.6578L34.1284 23.2514L31.722 23.2514L31.722 25.6578Z" fill="#1A2C3A"/>
<path d="M17.2834 11.2192H14.877V13.6256H17.2834V11.2192Z" fill="#1A2C3A"/>
<path d="M17.2834 23.2514L17.2834 20.845L14.877 20.845L14.877 23.2514L17.2834 23.2514Z" fill="#1A2C3A"/>
<path d="M34.1283 23.2514L36.5348 23.2514L36.5348 20.845L34.1283 20.845L34.1283 23.2514Z" fill="#1A2C3A"/>
<path d="M19.6898 6.40643H17.2834V8.81285H19.6898V6.40643Z" fill="#374E63"/>
<path d="M22.0963 8.81274H19.6898V11.2192H22.0963V8.81274Z" fill="#3F5E7A"/>
<path d="M24.5027 8.81274H22.0963V11.2192H24.5027V8.81274Z" fill="#496C89"/>
<path d="M24.5027 11.2192H22.0963V13.6256H24.5027V11.2192Z" fill="#496C89"/>
<path d="M24.5027 20.845H22.0963V23.2514H24.5027V20.845Z" fill="#496C89"/>
<path d="M22.0963 23.2514H19.6898V25.6578H22.0963V23.2514Z" fill="#405871"/>
<path d="M24.5027 23.2514H22.0963V25.6578H24.5027V23.2514Z" fill="#496C89"/>
<path d="M26.9092 23.2514H24.5027V25.6578H26.9092V23.2514Z" fill="#496C89"/>
<path d="M29.3155 23.2514H26.9091V25.6578H29.3155V23.2514Z" fill="#496C89"/>
<path d="M31.7219 23.2514H29.3155V25.6578H31.7219V23.2514Z" fill="#405871"/>
<path d="M34.1284 20.845H31.722V23.2514H34.1284V20.845Z" fill="#405871"/>
<path d="M31.7219 20.845H29.3155V23.2514H31.7219V20.845Z" fill="#496C89"/>
<path d="M31.7219 16.0321H29.3155V18.4385H31.7219V16.0321Z" fill="#496C89"/>
<path d="M34.1284 16.0321H31.722V18.4385H34.1284V16.0321Z" fill="#496C89"/>
<path d="M34.1284 18.4385H31.722V20.845H34.1284V18.4385Z" fill="#496C89"/>
<path d="M31.7219 18.4385H29.3155V20.845H31.7219V18.4385Z" fill="#496C89"/>
<path d="M31.7219 13.6256H29.3155V16.032H31.7219V13.6256Z" fill="#496C89"/>
<path d="M22.0963 11.2192H19.6898V13.6256H22.0963V11.2192Z" fill="#496C89"/>
<path d="M19.6898 13.6256H17.2834V16.032H19.6898V13.6256Z" fill="#496C89"/>
<path d="M19.6898 16.0321H17.2834V18.4385H19.6898V16.0321Z" fill="#496C89"/>
<path d="M26.9092 8.81274H24.5027V11.2192H26.9092V8.81274Z" fill="#496C89"/>
<path d="M26.9092 11.2192H24.5027V13.6256H26.9092V11.2192Z" fill="#496C89"/>
<path d="M26.9092 13.6256H24.5027V16.032H26.9092V13.6256Z" fill="#496C89"/>
<path d="M26.9092 16.0321H24.5027V18.4385H26.9092V16.0321Z" fill="#496C89"/>
<path d="M22.0963 16.0321H19.6898V18.4385H22.0963V16.0321Z" fill="#496C89"/>
<path d="M22.0963 13.6256H19.6898V16.032H22.0963V13.6256Z" fill="#496C89"/>
<path d="M22.0963 18.4385H19.6898V20.845H22.0963V18.4385Z" fill="#496C89"/>
<path d="M26.9092 18.4385H24.5027V20.845H26.9092V18.4385Z" fill="#496C89"/>
<path d="M26.9092 20.845H24.5027V23.2514H26.9092V20.845Z" fill="#496C89"/>
<path d="M29.3155 11.2192H26.9091V13.6256H29.3155V11.2192Z" fill="#496C89"/>
<path d="M29.3155 13.6256H26.9091V16.032H29.3155V13.6256Z" fill="#496C89"/>
<path d="M29.3155 16.0321H26.9091V18.4385H29.3155V16.0321Z" fill="#496C89"/>
<path d="M24.5027 16.0321H22.0963V18.4385H24.5027V16.0321Z" fill="#496C89"/>
<path d="M24.5027 13.6256H22.0963V16.032H24.5027V13.6256Z" fill="#496C89"/>
<path d="M24.5027 18.4385H22.0963V20.845H24.5027V18.4385Z" fill="#496C89"/>
<path d="M29.3155 18.4385H26.9091V20.845H29.3155V18.4385Z" fill="#496C89"/>
<path d="M29.3155 20.845H26.9091V23.2514H29.3155V20.845Z" fill="#496C89"/>
<path d="M29.3155 8.81274H26.9091V11.2192H29.3155V8.81274Z" fill="#496C89"/>
<path d="M31.7219 8.81274H29.3155V11.2192H31.7219V8.81274Z" fill="#3F5E7A"/>
<path d="M31.7219 11.2192H29.3155V13.6256H31.7219V11.2192Z" fill="#496C89"/>
<path d="M34.1284 11.2192H31.722V13.6256H34.1284V11.2192Z" fill="#3F5E7A"/>
<path d="M34.1284 13.6256H31.722V16.032H34.1284V13.6256Z" fill="#496C89"/>
<path d="M19.6898 11.2192H17.2834V13.6256H19.6898V11.2192Z" fill="#3F5E7A"/>
<path d="M19.6898 18.4385H17.2834V20.845H19.6898V18.4385Z" fill="#496C89"/>
<path d="M19.6898 20.845H17.2834V23.2514H19.6898V20.845Z" fill="#3F5E7A"/>
<path d="M22.0963 20.845H19.6898V23.2514H22.0963V20.845Z" fill="#496C89"/>
<path d="M17.2834 8.81274H14.877V11.2192H17.2834V8.81274Z" fill="#374E63"/>
<path d="M7.05853 4.70563H4.7056V7.05856H7.05853V4.70563Z" fill="#5A4A7C"/>
<path d="M7.05853 2.35321H4.7056V4.70616H7.05853V2.35321Z" fill="#66405A"/>
<path d="M7.05853 0H4.7056V2.35295H7.05853V0Z" fill="#5A4A7C"/>
<path d="M4.70619 4.70563H2.35324V7.05856H4.70619V4.70563Z" fill="#66405A"/>
<path d="M4.70619 2.35321H2.35324V4.70616H4.70619V2.35321Z" fill="#FF2C2C"/>
<path d="M4.70619 0H2.35324V2.35295H4.70619V0Z" fill="#66405A"/>
<path d="M2.35295 4.70563H0V7.05856H2.35295V4.70563Z" fill="#5A4A7C"/>
<path d="M2.35295 2.35321H0V4.70616H2.35295V2.35321Z" fill="#66405A"/>
<path d="M2.35295 0H0V2.35295H2.35295V0Z" fill="#5A4A7C"/>
</svg>
