<?xml version="1.0" encoding="utf-8"?>
<!-- Generator: Adobe Illustrator 23.0.0, SVG Export Plug-In . SVG Version: 6.00 Build 0)  -->
<svg version="1.1" id="Слой_1" xmlns="http://www.w3.org/2000/svg" xmlns:xlink="http://www.w3.org/1999/xlink" x="0px" y="0px"
	 viewBox="0 0 13 13" style="enable-background:new 0 0 13 13;" xml:space="preserve">
<style type="text/css">
	.st0{fill:#C4ED78;}
	.st1{fill:#D1FB84;}
	.st2{fill:#A7CD62;}
</style>
<g>
	<g>
		<path class="st0" d="M11,2V1h-1H9H8H7H6H5H4H3H2v1H1v1v1v1v1v1v1v1v1v1h1v1h1h1h1h1h1h1h1h1h1v-1h1v-1V9V8V7V6V5V4V3V2H11z M11,4
			v1v1v1v1v1v1h-1v1H9H8H7H6H5H4H3v-1H2V9V8V7V6V5V4V3h1V2h1h1h1h1h1h1h1v1h1V4z"/>
		<polygon class="st1" points="10,3 10,2 9,2 8,2 7,2 6,2 5,2 4,2 3,2 3,3 2,3 2,4 2,5 2,6 2,7 2,8 2,9 2,10 3,10 3,11 4,11 5,11 
			6,11 7,11 8,11 9,11 9,11 10,11 10,11 10,11 10,10 11,10 11,9 11,8 11,7 11,6 11,5 11,4 11,3 		"/>
		<g>
			<rect x="1" y="11" class="st2" width="1" height="1"/>
			<rect x="1" y="1" class="st2" width="1" height="1"/>
			<polygon class="st2" points="1,9 1,8 1,7 1,6 1,5 1,4 1,3 1,2 0,2 0,3 0,4 0,5 0,6 0,7 0,8 0,9 0,10 0,11 1,11 1,10 			"/>
			<polygon class="st2" points="4,1 5,1 6,1 7,1 8,1 9,1 10,1 11,1 11,0 10,0 9,0 8,0 7,0 6,0 5,0 4,0 3,0 2,0 2,1 3,1 			"/>
			<polygon class="st2" points="9,12 8,12 7,12 6,12 5,12 4,12 3,12 2,12 2,13 3,13 4,13 5,13 6,13 7,13 8,13 9,13 10,13 11,13 
				11,12 10,12 			"/>
			<rect x="11" y="11" class="st2" width="1" height="1"/>
			<rect x="11" y="1" class="st2" width="1" height="1"/>
			<polygon class="st2" points="12,2 12,3 12,4 12,5 12,6 12,7 12,8 12,9 12,10 12,11 13,11 13,10 13,9 13,8 13,7 13,6 13,5 13,4 
				13,3 13,2 			"/>
		</g>
	</g>
	<path d="M7,10V8H3V5h4V3h1v1h1v1h1v1h1v1h-1v1H9v1H8v1H7z"/>
</g>
</svg>
