<svg width="13" height="13" viewBox="0 0 13 13" fill="none" xmlns="http://www.w3.org/2000/svg">
<path d="M11 2V1H10H9H8H7H6H5H4H3H2V2H1V3V4V5V6V7V8V9V10V11H2V12H3H4H5H6H7H8H9H10H11V11H12V10V9V8V7V6V5V4V3V2H11ZM11 4V5V6V7V8V9V10H10V11H9H8H7H6H5H4H3V10H2V9V8V7V6V5V4V3H3V2H4H5H6H7H8H9H10V3H11V4Z" fill="#C4ED78"/>
<path d="M10 3V2H9H8H7H6H5H4H3V3H2V4V5V6V7V8V9V10H3V11H4H5H6H7H8H9H10V10H11V9V8V7V6V5V4V3H10Z" fill="#D1FB84"/>
<path d="M2 11H1V12H2V11Z" fill="#A7CD62"/>
<path d="M2 1H1V2H2V1Z" fill="#A7CD62"/>
<path d="M1 9V8V7V6V5V4V3V2H0V3V4V5V6V7V8V9V10V11H1V10V9Z" fill="#A7CD62"/>
<path d="M4 1H5H6H7H8H9H10H11V0H10H9H8H7H6H5H4H3H2V1H3H4Z" fill="#A7CD62"/>
<path d="M9 12H8H7H6H5H4H3H2V13H3H4H5H6H7H8H9H10H11V12H10H9Z" fill="#A7CD62"/>
<path d="M12 11H11V12H12V11Z" fill="#A7CD62"/>
<path d="M12 1H11V2H12V1Z" fill="#A7CD62"/>
<path d="M12 2V3V4V5V6V7V8V9V10V11H13V10V9V8V7V6V5V4V3V2H12Z" fill="#A7CD62"/>
<path d="M2.23077 8V7.57143H2V7.14286H2.46154V7.57143H3.15385V6.71429H2.23077V6.28571H2V5.42857H2.23077V5H3.38462V5.42857H3.61538V5.85714H3.15385V5.42857H2.46154V6.28571H3.38462V6.71429H3.61538V7.57143H3.38462V8H2.23077Z" fill="black"/>
<path d="M3.84615 8V5H5.23077V5.42857H5.46154V6.71429H5.23077V7.14286H4.30769V8H3.84615ZM4.30769 6.71429H5V5.42857H4.30769V6.71429Z" fill="black"/>
<path d="M5.69231 8V5.85714H5.92308V5.42857H6.15385V5H6.84615V5.42857H7.07692V5.85714H7.30769V8H6.84615V7.14286H6.15385V8H5.69231ZM6.15385 6.71429H6.84615V5.85714H6.61538V5.42857H6.38462V5.85714H6.15385V6.71429Z" fill="black"/>
<path d="M8 8V7.57143H7.76923V7.14286H7.53846V5.85714H7.76923V5.42857H8V5H8.92308V5.42857H9.15385V5.85714H8.69231V5.42857H8.23077V5.85714H8V7.14286H8.23077V7.57143H8.69231V7.14286H9.15385V7.57143H8.92308V8H8Z" fill="black"/>
<path d="M9.38462 8V5H11V5.42857H9.84615V6.28571H10.7692V6.71429H9.84615V7.57143H11V8H9.38462Z" fill="black"/>
</svg>
