<svg width="263" height="15" viewBox="0 0 263 15" fill="none" xmlns="http://www.w3.org/2000/svg">
<path d="M1.15385 13.2692V1.15385H11.5385V2.88461H13.2692V8.07692H9.80769V9.80769H11.5385V11.5385H13.2692V13.2692H8.07692V11.5385H6.34615V9.80769H4.61538V13.2692H1.15385ZM4.61538 8.07692H8.07692V6.34615H9.80769V2.88461H4.61538V8.07692Z" fill="#92CCFF"/>
<path d="M15 13.2692V1.15385H27.1154V2.88461H18.4615V6.34615H25.3846V8.07692H18.4615V11.5385H27.1154V13.2692H15Z" fill="#92CCFF"/>
<path d="M34.0385 13.2692V2.88461H30.5769V1.15385H40.9615V2.88461H37.5V13.2692H34.0385Z" fill="#92CCFF"/>
<path d="M42.6923 13.2692V1.15385H53.0769V2.88461H54.8077V8.07692H51.3462V9.80769H53.0769V11.5385H54.8077V13.2692H49.6154V11.5385H47.8846V9.80769H46.1538V13.2692H42.6923ZM46.1538 8.07692H49.6154V6.34615H51.3462V2.88461H46.1538V8.07692Z" fill="#92CCFF"/>
<path d="M58.2692 13.2692V11.5385H56.5385V2.88461H58.2692V1.15385H66.9231V2.88461H68.6538V11.5385H66.9231V13.2692H58.2692ZM60 11.5385H65.1923V2.88461H60V11.5385Z" fill="#92CCFF"/>
<path d="M87.6923 13.2692V11.5385H85.9615V9.80769H84.2308V4.61538H85.9615V2.88461H87.6923V1.15385H96.3462V2.88461H89.4231V4.61538H87.6923V9.80769H89.4231V11.5385H92.8846V8.07692H91.1538V6.34615H96.3462V13.2692H87.6923Z" fill="#92CCFF"/>
<path d="M98.0769 13.2692V4.61538H99.8077V2.88461H101.538V1.15385H106.731V2.88461H108.462V4.61538H110.192V13.2692H106.731V9.80769H101.538V13.2692H98.0769ZM101.538 8.07692H106.731V4.61538H105V2.88461H103.269V4.61538H101.538V8.07692Z" fill="#92CCFF"/>
<path d="M111.923 13.2692V1.15385H115.385V2.88461H117.115V4.61538H118.846V2.88461H120.577V1.15385H124.038V13.2692H120.577V6.34615H118.846V9.80769H117.115V6.34615H115.385V13.2692H111.923Z" fill="#92CCFF"/>
<path d="M127.5 13.2692V11.5385H130.962V2.88461H127.5V1.15385H137.885V2.88461H134.423V11.5385H137.885V13.2692H127.5Z" fill="#92CCFF"/>
<path d="M139.615 13.2692V1.15385H143.077V2.88461H144.808V4.61538H146.538V6.34615H148.269V1.15385H151.731V13.2692H148.269V9.80769H146.538V8.07692H144.808V6.34615H143.077V13.2692H139.615Z" fill="#92CCFF"/>
<path d="M156.923 13.2692V11.5385H155.192V9.80769H153.462V4.61538H155.192V2.88461H156.923V1.15385H165.577V2.88461H158.654V4.61538H156.923V9.80769H158.654V11.5385H162.115V8.07692H160.385V6.34615H165.577V13.2692H156.923Z" fill="#92CCFF"/>
<path d="M191.538 2.88461H184.615V1.15385H191.538V2.88461ZM184.615 4.61538H182.885V2.88461H184.615V4.61538ZM191.538 4.61538V2.88461H193.269V4.61538H191.538ZM182.885 4.61538V11.5385H181.154V4.61538H182.885ZM186.346 4.61538H189.808V6.34615H186.346V4.61538ZM195 4.61538V11.5385H193.269V4.61538H195ZM184.615 6.34615H186.346V9.80769H184.615V6.34615ZM186.346 11.5385V9.80769H189.808V11.5385H186.346ZM184.615 11.5385V13.2692H182.885V11.5385H184.615ZM191.538 11.5385H193.269V13.2692H191.538V11.5385ZM184.615 13.2692H191.538V15H184.615V13.2692Z" fill="#92CCFF"/>
<path d="M208.846 13.2692V9.80769H210.577V8.07692H212.308V6.34615H215.769V4.61538H217.5V2.88461H212.308V4.61538H208.846V2.88461H210.577V1.15385H219.231V2.88461H220.962V6.34615H219.231V8.07692H217.5V9.80769H214.038V11.5385H220.962V13.2692H208.846Z" fill="#92CCFF"/>
<path d="M226.154 13.2692V11.5385H224.423V9.80769H222.692V4.61538H224.423V2.88461H226.154V1.15385H231.346V2.88461H233.077V4.61538H234.808V9.80769H233.077V11.5385H231.346V13.2692H226.154ZM227.885 11.5385H231.346V4.61538H229.615V2.88461H226.154V9.80769H227.885V11.5385Z" fill="#92CCFF"/>
<path d="M236.538 13.2692V9.80769H238.269V8.07692H240V6.34615H243.462V4.61538H245.192V2.88461H240V4.61538H236.538V2.88461H238.269V1.15385H246.923V2.88461H248.654V6.34615H246.923V8.07692H245.192V9.80769H241.731V11.5385H248.654V13.2692H236.538Z" fill="#92CCFF"/>
<path d="M252.115 13.2692V11.5385H250.385V9.80769H253.846V11.5385H259.038V8.07692H253.846V6.34615H255.577V4.61538H257.308V2.88461H252.115V1.15385H262.5V2.88461H260.769V4.61538H259.038V6.34615H260.769V8.07692H262.5V11.5385H260.769V13.2692H252.115Z" fill="#92CCFF"/>
<path d="M0 12.1154V0H10.3846V1.73077H12.1154V6.92308H8.65385V8.65385H10.3846V10.3846H12.1154V12.1154H6.92308V10.3846H5.19231V8.65385H3.46154V12.1154H0ZM3.46154 6.92308H6.92308V5.19231H8.65385V1.73077H3.46154V6.92308Z" fill="#374A5C"/>
<path d="M13.8462 12.1154V0H25.9615V1.73077H17.3077V5.19231H24.2308V6.92308H17.3077V10.3846H25.9615V12.1154H13.8462Z" fill="#374A5C"/>
<path d="M32.8846 12.1154V1.73077H29.4231V0H39.8077V1.73077H36.3462V12.1154H32.8846Z" fill="#374A5C"/>
<path d="M41.5385 12.1154V0H51.9231V1.73077H53.6538V6.92308H50.1923V8.65385H51.9231V10.3846H53.6538V12.1154H48.4615V10.3846H46.7308V8.65385H45V12.1154H41.5385ZM45 6.92308H48.4615V5.19231H50.1923V1.73077H45V6.92308Z" fill="#374A5C"/>
<path d="M57.1154 12.1154V10.3846H55.3846V1.73077H57.1154V0H65.7692V1.73077H67.5V10.3846H65.7692V12.1154H57.1154ZM58.8462 10.3846H64.0385V1.73077H58.8462V10.3846Z" fill="#374A5C"/>
<path d="M86.5385 12.1154V10.3846H84.8077V8.65385H83.0769V3.46154H84.8077V1.73077H86.5385V0H95.1923V1.73077H88.2692V3.46154H86.5385V8.65385H88.2692V10.3846H91.7308V6.92308H90V5.19231H95.1923V12.1154H86.5385Z" fill="#374A5C"/>
<path d="M96.9231 12.1154V3.46154H98.6538V1.73077H100.385V0H105.577V1.73077H107.308V3.46154H109.038V12.1154H105.577V8.65385H100.385V12.1154H96.9231ZM100.385 6.92308H105.577V3.46154H103.846V1.73077H102.115V3.46154H100.385V6.92308Z" fill="#374A5C"/>
<path d="M110.769 12.1154V0H114.231V1.73077H115.962V3.46154H117.692V1.73077H119.423V0H122.885V12.1154H119.423V5.19231H117.692V8.65385H115.962V5.19231H114.231V12.1154H110.769Z" fill="#374A5C"/>
<path d="M126.346 12.1154V10.3846H129.808V1.73077H126.346V0H136.731V1.73077H133.269V10.3846H136.731V12.1154H126.346Z" fill="#374A5C"/>
<path d="M138.462 12.1154V0H141.923V1.73077H143.654V3.46154H145.385V5.19231H147.115V0H150.577V12.1154H147.115V8.65385H145.385V6.92308H143.654V5.19231H141.923V12.1154H138.462Z" fill="#374A5C"/>
<path d="M155.769 12.1154V10.3846H154.038V8.65385H152.308V3.46154H154.038V1.73077H155.769V0H164.423V1.73077H157.5V3.46154H155.769V8.65385H157.5V10.3846H160.962V6.92308H159.231V5.19231H164.423V12.1154H155.769Z" fill="#374A5C"/>
<path d="M190.385 1.73077H183.462V0H190.385V1.73077ZM183.462 3.46154H181.731V1.73077H183.462V3.46154ZM190.385 3.46154V1.73077H192.115V3.46154H190.385ZM181.731 3.46154V10.3846H180V3.46154H181.731ZM185.192 3.46154H188.654V5.19231H185.192V3.46154ZM193.846 3.46154V10.3846H192.115V3.46154H193.846ZM183.462 5.19231H185.192V8.65385H183.462V5.19231ZM185.192 10.3846V8.65385H188.654V10.3846H185.192ZM183.462 10.3846V12.1154H181.731V10.3846H183.462ZM190.385 10.3846H192.115V12.1154H190.385V10.3846ZM183.462 12.1154H190.385V13.8462H183.462V12.1154Z" fill="#374A5C"/>
<path d="M207.692 12.1154V8.65385H209.423V6.92308H211.154V5.19231H214.615V3.46154H216.346V1.73077H211.154V3.46154H207.692V1.73077H209.423V0H218.077V1.73077H219.808V5.19231H218.077V6.92308H216.346V8.65385H212.885V10.3846H219.808V12.1154H207.692Z" fill="#374A5C"/>
<path d="M225 12.1154V10.3846H223.269V8.65385H221.538V3.46154H223.269V1.73077H225V0H230.192V1.73077H231.923V3.46154H233.654V8.65385H231.923V10.3846H230.192V12.1154H225ZM226.731 10.3846H230.192V3.46154H228.462V1.73077H225V8.65385H226.731V10.3846Z" fill="#374A5C"/>
<path d="M235.385 12.1154V8.65385H237.115V6.92308H238.846V5.19231H242.308V3.46154H244.038V1.73077H238.846V3.46154H235.385V1.73077H237.115V0H245.769V1.73077H247.5V5.19231H245.769V6.92308H244.038V8.65385H240.577V10.3846H247.5V12.1154H235.385Z" fill="#374A5C"/>
<path d="M250.962 12.1154V10.3846H249.231V8.65385H252.692V10.3846H257.885V6.92308H252.692V5.19231H254.423V3.46154H256.154V1.73077H250.962V0H261.346V1.73077H259.615V3.46154H257.885V5.19231H259.615V6.92308H261.346V10.3846H259.615V12.1154H250.962Z" fill="#374A5C"/>
</svg>
