<svg width="99" height="118" viewBox="0 0 99 118" fill="none" xmlns="http://www.w3.org/2000/svg">
<path d="M18 97.5V87H27V88.5H28.5V93H25.5V94.5H27V96H28.5V97.5H24V96H22.5V94.5H21V97.5H18ZM21 93H24V91.5H25.5V88.5H21V93Z" fill="#D1FB84"/>
<path d="M31 97.5V87H41.5V88.5H34V91.5H40V93H34V96H41.5V97.5H31Z" fill="#D1FB84"/>
<path d="M47.5 97.5V88.5H44.5V87H53.5V88.5H50.5V97.5H47.5Z" fill="#D1FB84"/>
<path d="M56 97.5V87H65V88.5H66.5V93H63.5V94.5H65V96H66.5V97.5H62V96H60.5V94.5H59V97.5H56ZM59 93H62V91.5H63.5V88.5H59V93Z" fill="#D1FB84"/>
<path d="M70.5 97.5V96H69V88.5H70.5V87H78V88.5H79.5V96H78V97.5H70.5ZM72 96H76.5V88.5H72V96Z" fill="#D1FB84"/>
<path d="M21 116.5V115H19.5V113.5H18V109H19.5V107.5H21V106H28.5V107.5H22.5V109H21V113.5H22.5V115H25.5V112H24V110.5H28.5V116.5H21Z" fill="#D1FB84"/>
<path d="M31 116.5V109H32.5V107.5H34V106H38.5V107.5H40V109H41.5V116.5H38.5V113.5H34V116.5H31ZM34 112H38.5V109H37V107.5H35.5V109H34V112Z" fill="#D1FB84"/>
<path d="M44 116.5V106H47V107.5H48.5V109H50V107.5H51.5V106H54.5V116.5H51.5V110.5H50V113.5H48.5V110.5H47V116.5H44Z" fill="#D1FB84"/>
<path d="M57 116.5V106H67.5V107.5H60V110.5H66V112H60V115H67.5V116.5H57Z" fill="#D1FB84"/>
<path d="M70.5 116.5V115H69V113.5H72V115H76.5V112H70.5V110.5H69V107.5H70.5V106H78V107.5H79.5V109H76.5V107.5H72V110.5H78V112H79.5V115H78V116.5H70.5Z" fill="#D1FB84"/>
<rect x="36" y="18" width="9" height="9" fill="#D1FB84"/>
<rect x="36" y="27" width="9" height="9" fill="#D1FB84"/>
<rect x="36" y="36" width="9" height="9" fill="#D1FB84"/>
<rect x="36" y="45" width="9" height="9" fill="#D1FB84"/>
<rect x="27" y="18" width="9" height="9" fill="#D1FB84"/>
<rect x="27" y="36" width="9" height="9" fill="#D1FB84"/>
<rect x="27" y="45" width="9" height="9" fill="#D1FB84"/>
<rect x="18" y="18" width="9" height="9" fill="#D1FB84"/>
<rect x="18" y="27" width="9" height="9" fill="#D1FB84"/>
<rect x="18" y="36" width="9" height="9" fill="#D1FB84"/>
<rect x="18" y="45" width="9" height="9" fill="#D1FB84"/>
<rect x="18" y="54" width="9" height="9" fill="#D1FB84"/>
<rect x="9" y="63" width="9" height="9" fill="#D1FB84"/>
<rect x="9" y="27" width="9" height="9" fill="#D1FB84"/>
<rect x="9" y="36" width="9" height="9" fill="#D1FB84"/>
<rect x="9" y="45" width="9" height="9" fill="#D1FB84"/>
<rect x="27" y="9" width="9" height="9" fill="#D1FB84"/>
<rect x="18" width="9" height="9" fill="#D1FB84"/>
<rect x="45" y="18" width="9" height="9" fill="#D1FB84"/>
<rect x="45" y="27" width="9" height="9" fill="#D1FB84"/>
<rect x="45" y="36" width="9" height="9" fill="#D1FB84"/>
<rect x="45" y="45" width="9" height="9" fill="#D1FB84"/>
<rect x="63" y="18" width="9" height="9" fill="#D1FB84"/>
<rect x="63" y="36" width="9" height="9" fill="#D1FB84"/>
<rect x="63" y="45" width="9" height="9" fill="#D1FB84"/>
<rect x="72" y="54" width="9" height="9" fill="#D1FB84"/>
<rect x="81" y="63" width="9" height="9" fill="#D1FB84"/>
<rect x="72" y="18" width="9" height="9" fill="#D1FB84"/>
<rect x="72" y="27" width="9" height="9" fill="#D1FB84"/>
<rect x="72" y="36" width="9" height="9" fill="#D1FB84"/>
<rect x="72" y="45" width="9" height="9" fill="#D1FB84"/>
<rect x="81" y="27" width="9" height="9" fill="#D1FB84"/>
<rect x="81" y="36" width="9" height="9" fill="#D1FB84"/>
<rect x="81" y="45" width="9" height="9" fill="#D1FB84"/>
<rect x="90" y="27" width="9" height="9" fill="#D1FB84"/>
<rect x="90" y="36" width="9" height="9" fill="#D1FB84"/>
<rect y="27" width="9" height="9" fill="#D1FB84"/>
<rect y="36" width="9" height="9" fill="#D1FB84"/>
<rect x="90" y="18" width="9" height="9" fill="#D1FB84"/>
<rect y="18" width="9" height="9" fill="#D1FB84"/>
<rect x="90" y="9" width="9" height="9" fill="#D1FB84"/>
<rect y="9" width="9" height="9" fill="#D1FB84"/>
<rect x="63" y="9" width="9" height="9" fill="#D1FB84"/>
<rect x="72" width="9" height="9" fill="#D1FB84"/>
<rect x="54" y="18" width="9" height="9" fill="#D1FB84"/>
<rect x="54" y="27" width="9" height="9" fill="#D1FB84"/>
<rect x="54" y="36" width="9" height="9" fill="#D1FB84"/>
<rect x="54" y="45" width="9" height="9" fill="#D1FB84"/>
</svg>
