<svg width="129" height="30" viewBox="0 0 129 30" fill="none" xmlns="http://www.w3.org/2000/svg">
<path d="M123.546 2.72729H120.818V5.45457H123.546V2.72729Z" fill="#374E63"/>
<path d="M118.091 0H115.364V2.72727H118.091V0Z" fill="#374E63"/>
<path d="M112.636 0H109.909V2.72727H112.636V0Z" fill="#374E63"/>
<path d="M120.818 0H118.091V2.72727H120.818V0Z" fill="#374E63"/>
<path d="M115.364 0H112.636V2.72727H115.364V0Z" fill="#374E63"/>
<path d="M109.909 0H107.182V2.72727H109.909V0Z" fill="#374E63"/>
<path d="M126.273 5.45447H123.546V8.18174H126.273V5.45447Z" fill="#374E63"/>
<path d="M129 8.18176H126.273V10.909H129V8.18176Z" fill="#374E63"/>
<path d="M101.727 8.18176H99V10.909H101.727V8.18176Z" fill="#374E63"/>
<path d="M129 10.9091H126.273V13.6363H129V10.9091Z" fill="#374E63"/>
<path d="M101.727 10.9091H99V13.6363H101.727V10.9091Z" fill="#374E63"/>
<path d="M129 13.6364H126.273V16.3636H129V13.6364Z" fill="#374E63"/>
<path d="M101.727 13.6364H99V16.3636H101.727V13.6364Z" fill="#374E63"/>
<path d="M129 16.3636H126.273V19.0909H129V16.3636Z" fill="#374E63"/>
<path d="M101.727 16.3636H99V19.0909H101.727V16.3636Z" fill="#374E63"/>
<path d="M129 19.0909H126.273V21.8182H129V19.0909Z" fill="#374E63"/>
<path d="M101.727 19.0909H99V21.8182H101.727V19.0909Z" fill="#374E63"/>
<path d="M126.273 21.8182H123.546V24.5455H126.273V21.8182Z" fill="#374E63"/>
<path d="M123.546 24.5455H120.818V27.2728H123.546V24.5455Z" fill="#374E63"/>
<path d="M120.818 27.2727H118.091V30H120.818V27.2727Z" fill="#374E63"/>
<path d="M118.091 27.2727H115.364V30H118.091V27.2727Z" fill="#374E63"/>
<path d="M115.364 27.2727H112.636V30H115.364V27.2727Z" fill="#374E63"/>
<path d="M112.636 27.2727H109.909V30H112.636V27.2727Z" fill="#374E63"/>
<path d="M109.909 27.2727H107.182V30H109.909V27.2727Z" fill="#374E63"/>
<path d="M107.182 24.5455H104.455V27.2728H107.182V24.5455Z" fill="#374E63"/>
<path d="M104.455 21.8182H101.727V24.5455H104.455V21.8182Z" fill="#374E63"/>
<path d="M120.818 2.72729H118.091V5.45457H120.818V2.72729Z" fill="#1A2C3A"/>
<path d="M123.546 5.45447H120.818V8.18174H123.546V5.45447Z" fill="#1A2C3A"/>
<path d="M126.273 8.18176H123.546V10.909H126.273V8.18176Z" fill="#1A2C3A"/>
<path d="M118.091 2.72729H115.364V5.45457H118.091V2.72729Z" fill="#243E51"/>
<path d="M118.091 24.5455H115.364V27.2728H118.091V24.5455Z" fill="#243E51"/>
<path d="M104.455 19.0909L104.455 16.3636L101.727 16.3636L101.727 19.0909L104.455 19.0909Z" fill="#243E51"/>
<path d="M126.273 19.0909L126.273 16.3636L123.545 16.3636L123.545 19.0909L126.273 19.0909Z" fill="#243E51"/>
<path d="M115.364 2.72729H112.636V5.45457H115.364V2.72729Z" fill="#243E51"/>
<path d="M115.364 24.5455H112.636V27.2728H115.364V24.5455Z" fill="#243E51"/>
<path d="M104.455 16.3636L104.455 13.6364L101.727 13.6364L101.727 16.3636L104.455 16.3636Z" fill="#243E51"/>
<path d="M126.273 16.3636L126.273 13.6364L123.545 13.6364L123.545 16.3636L126.273 16.3636Z" fill="#243E51"/>
<path d="M112.636 2.72729H109.909V5.45457H112.636V2.72729Z" fill="#243E51"/>
<path d="M112.636 24.5455H109.909V27.2728H112.636V24.5455Z" fill="#243E51"/>
<path d="M104.455 13.6363L104.455 10.9091L101.727 10.9091L101.727 13.6363L104.455 13.6363Z" fill="#243E51"/>
<path d="M126.273 13.6363L126.273 10.9091L123.545 10.9091L123.545 13.6363L126.273 13.6363Z" fill="#243E51"/>
<path d="M109.909 2.72729H107.182V5.45457H109.909V2.72729Z" fill="#1A2C3A"/>
<path d="M109.909 27.2728L109.909 24.5455L107.182 24.5455L107.182 27.2728L109.909 27.2728Z" fill="#1A2C3A"/>
<path d="M118.091 27.2727L120.818 27.2727L120.818 24.5454L118.091 24.5454L118.091 27.2727Z" fill="#1A2C3A"/>
<path d="M107.182 5.45447H104.455V8.18174H107.182V5.45447Z" fill="#1A2C3A"/>
<path d="M107.182 24.5455L107.182 21.8182L104.455 21.8182L104.455 24.5455L107.182 24.5455Z" fill="#1A2C3A"/>
<path d="M120.818 24.5455L123.546 24.5455L123.546 21.8183L120.818 21.8183L120.818 24.5455Z" fill="#1A2C3A"/>
<path d="M104.455 8.18176H101.727V10.909H104.455V8.18176Z" fill="#1A2C3A"/>
<path d="M104.455 21.8182L104.455 19.0909L101.727 19.0909L101.727 21.8182L104.455 21.8182Z" fill="#1A2C3A"/>
<path d="M123.545 21.8182L126.273 21.8182L126.273 19.091L123.545 19.091L123.545 21.8182Z" fill="#1A2C3A"/>
<path d="M107.182 2.72729H104.455V5.45457H107.182V2.72729Z" fill="#374E63"/>
<path d="M109.909 5.45447H107.182V8.18174H109.909V5.45447Z" fill="#2F4E66"/>
<path d="M112.636 5.45447H109.909V8.18174H112.636V5.45447Z" fill="#2F4E66"/>
<path d="M112.636 8.18176H109.909V10.909H112.636V8.18176Z" fill="#405871"/>
<path d="M112.636 19.0909H109.909V21.8182H112.636V19.0909Z" fill="#405871"/>
<path d="M109.909 21.8182H107.182V24.5455H109.909V21.8182Z" fill="#2F4E66"/>
<path d="M112.636 21.8182H109.909V24.5455H112.636V21.8182Z" fill="#2F4E66"/>
<path d="M115.364 21.8182H112.636V24.5455H115.364V21.8182Z" fill="#2F4E66"/>
<path d="M118.091 21.8182H115.364V24.5455H118.091V21.8182Z" fill="#2F4E66"/>
<path d="M120.818 21.8182H118.091V24.5455H120.818V21.8182Z" fill="#2F4E66"/>
<path d="M123.546 19.0909H120.818V21.8182H123.546V19.0909Z" fill="#2F4E66"/>
<path d="M120.818 19.0909H118.091V21.8182H120.818V19.0909Z" fill="#405871"/>
<path d="M120.818 13.6364H118.091V16.3636H120.818V13.6364Z" fill="#405871"/>
<path d="M123.546 13.6364H120.818V16.3636H123.546V13.6364Z" fill="#2F4E66"/>
<path d="M123.546 16.3636H120.818V19.0909H123.546V16.3636Z" fill="#2F4E66"/>
<path d="M120.818 16.3636H118.091V19.0909H120.818V16.3636Z" fill="#405871"/>
<path d="M120.818 10.9091H118.091V13.6363H120.818V10.9091Z" fill="#405871"/>
<path d="M109.909 8.18176H107.182V10.909H109.909V8.18176Z" fill="#38536B"/>
<path d="M107.182 10.9091H104.455V13.6363H107.182V10.9091Z" fill="#2F4E66"/>
<path d="M107.182 13.6364H104.455V16.3636H107.182V13.6364Z" fill="#2F4E66"/>
<path d="M115.364 5.45447H112.636V8.18174H115.364V5.45447Z" fill="#2F4E66"/>
<path d="M115.364 8.18176H112.636V10.909H115.364V8.18176Z" fill="#1A2C3A"/>
<path d="M115.364 10.9091H112.636V13.6363H115.364V10.9091Z" fill="#1A2C3A"/>
<path d="M115.364 13.6364H112.636V16.3636H115.364V13.6364Z" fill="#1A2C3A"/>
<path d="M109.909 13.6364H107.182V16.3636H109.909V13.6364Z" fill="#1A2C3A"/>
<path d="M109.909 10.9091H107.182V13.6363H109.909V10.9091Z" fill="#1A2C3A"/>
<path d="M109.909 16.3636H107.182V19.0909H109.909V16.3636Z" fill="#1A2C3A"/>
<path d="M115.364 16.3636H112.636V19.0909H115.364V16.3636Z" fill="#1A2C3A"/>
<path d="M115.364 19.0909H112.636V21.8182H115.364V19.0909Z" fill="#1A2C3A"/>
<path d="M118.091 8.18176H115.364V10.909H118.091V8.18176Z" fill="#1A2C3A"/>
<path d="M118.091 10.9091H115.364V13.6363H118.091V10.9091Z" fill="#1A2C3A"/>
<path d="M118.091 13.6364H115.364V16.3636H118.091V13.6364Z" fill="#1A2C3A"/>
<path d="M112.636 13.6364H109.909V16.3636H112.636V13.6364Z" fill="#1A2C3A"/>
<path d="M112.636 10.9091H109.909V13.6363H112.636V10.9091Z" fill="#1A2C3A"/>
<path d="M112.636 16.3636H109.909V19.0909H112.636V16.3636Z" fill="#1A2C3A"/>
<path d="M118.091 16.3636H115.364V19.0909H118.091V16.3636Z" fill="#1A2C3A"/>
<path d="M118.091 19.0909H115.364V21.8182H118.091V19.0909Z" fill="#1A2C3A"/>
<path d="M118.091 5.45447H115.364V8.18174H118.091V5.45447Z" fill="#2F4E66"/>
<path d="M120.818 5.45447H118.091V8.18174H120.818V5.45447Z" fill="#2F4E66"/>
<path d="M120.818 8.18176H118.091V10.909H120.818V8.18176Z" fill="#405871"/>
<path d="M123.546 8.18176H120.818V10.909H123.546V8.18176Z" fill="#2F4E66"/>
<path d="M123.546 10.9091H120.818V13.6363H123.546V10.9091Z" fill="#2F4E66"/>
<path d="M107.182 8.18176H104.455V10.909H107.182V8.18176Z" fill="#2F4E66"/>
<path d="M107.182 16.3636H104.455V19.0909H107.182V16.3636Z" fill="#2F4E66"/>
<path d="M107.182 19.0909H104.455V21.8182H107.182V19.0909Z" fill="#2F4E66"/>
<path d="M109.909 19.0909H107.182V21.8182H109.909V19.0909Z" fill="#38536B"/>
<path d="M104.455 5.45447H101.727V8.18174H104.455V5.45447Z" fill="#374E63"/>
<path d="M0 23V8H4.28571V10.1429H6.42857V12.2857H8.57143V10.1429H10.7143V8H15V23H10.7143V14.4286H8.57143V18.7143H6.42857V14.4286H4.28571V23H0Z" fill="#1A2C3A"/>
<path d="M19.2857 23V20.8571H17.1429V8H21.4286V20.8571H27.8571V8H32.1429V20.8571H30V23H19.2857Z" fill="#1A2C3A"/>
<path d="M36.4286 23V20.8571H34.2857V18.7143H38.5714V20.8571H45V16.5714H36.4286V14.4286H34.2857V10.1429H36.4286V8H47.1429V10.1429H49.2857V12.2857H45V10.1429H38.5714V14.4286H47.1429V16.5714H49.2857V20.8571H47.1429V23H36.4286Z" fill="#1A2C3A"/>
<path d="M53.5714 23V20.8571H57.8571V10.1429H53.5714V8H66.4286V10.1429H62.1429V20.8571H66.4286V23H53.5714Z" fill="#1A2C3A"/>
<path d="M72.8571 23V20.8571H70.7143V18.7143H68.5714V12.2857H70.7143V10.1429H72.8571V8H81.4286V10.1429H83.5714V12.2857H79.2857V10.1429H75V12.2857H72.8571V18.7143H75V20.8571H79.2857V18.7143H83.5714V20.8571H81.4286V23H72.8571Z" fill="#1A2C3A"/>
</svg>
